<svg width="22" height="20" viewBox="0 0 22 20" fill="none" xmlns="http://www.w3.org/2000/svg">
<path d="M10.1193 0.859824C10.4191 -0.0604526 11.721 -0.0604517 12.0209 0.859825L13.772 6.23422C13.9061 6.64585 14.2899 6.92443 14.7228 6.92443H20.3835C21.3529 6.92443 21.7553 8.16546 20.9703 8.73422L16.3954 12.0489C16.0439 12.3035 15.8968 12.7558 16.0313 13.1684L17.7799 18.5351C18.0799 19.4559 17.0266 20.2229 16.2423 19.6547L11.6568 16.3323C11.3068 16.0787 10.8334 16.0787 10.4834 16.3323L5.89782 19.6547C5.11356 20.2229 4.06027 19.4559 4.36029 18.5351L6.10886 13.1684C6.24332 12.7558 6.09624 12.3035 5.74478 12.0489L1.16991 8.73422C0.384899 8.16546 0.78723 6.92443 1.75662 6.92443H7.41738C7.85031 6.92443 8.23407 6.64585 8.36818 6.23422L10.1193 0.859824Z" fill="#070707"/>
</svg>
