<svg width="82" height="82" viewBox="0 0 82 82" fill="none" xmlns="http://www.w3.org/2000/svg">
<g clip-path="url(#clip0_2_126)">
<path fill-rule="evenodd" clip-rule="evenodd" d="M40.8877 0.449951C18.3015 0.449951 0.00774384 18.5737 0.00774384 40.95C0.00774384 58.8712 11.7096 74.0081 27.9594 79.3743C30.0034 79.7287 30.7699 78.5137 30.7699 77.4506C30.7699 76.4887 30.7188 73.2993 30.7188 69.9075C20.4477 71.7806 17.7905 67.4268 16.9729 65.1487C16.513 63.9843 14.5201 60.3899 12.7827 59.4281C11.3519 58.6687 9.30794 56.7956 12.7316 56.7449C15.9509 56.6943 18.2504 59.6812 19.0169 60.8962C22.6961 67.0218 28.5726 65.3006 30.9232 64.2375C31.2809 61.605 32.354 59.8331 33.5293 58.8206C24.4335 57.8081 14.9289 54.3149 14.9289 38.8237C14.9289 34.4193 16.513 30.7743 19.1191 27.9393C18.7103 26.9268 17.2795 22.7756 19.5279 17.2068C19.5279 17.2068 22.9516 16.1437 30.7699 21.3581C34.0403 20.4468 37.5151 19.9912 40.9899 19.9912C44.4647 19.9912 47.9395 20.4468 51.2099 21.3581C59.0282 16.0931 62.4519 17.2068 62.4519 17.2068C64.7003 22.7756 63.2695 26.9268 62.8607 27.9393C65.4669 30.7743 67.0509 34.3687 67.0509 38.8237C67.0509 54.3656 57.4952 57.8081 48.3994 58.8206C49.8813 60.0862 51.1588 62.5162 51.1588 66.3131C51.1588 71.7299 51.1077 76.0837 51.1077 77.4506C51.1077 78.5137 51.8742 79.7793 53.9182 79.3743C70.0658 74.0081 81.7677 58.8206 81.7677 40.95C81.7677 18.5737 63.4739 0.449951 40.8877 0.449951Z" fill="#1B1F23"/>
</g>
<defs>
<clipPath id="clip0_2_126">
<rect width="81.76" height="81" fill="white" transform="translate(0.00774384 0.449951)"/>
</clipPath>
</defs>
</svg>
