<svg width="208" height="78" viewBox="0 0 208 78" fill="none" xmlns="http://www.w3.org/2000/svg">
<path fill-rule="evenodd" clip-rule="evenodd" d="M193.257 31C193.257 42.55 183.84 52 172.329 52H33.6848C22.1747 52 12.7573 42.55 12.7573 31V31C12.7573 19.45 22.1747 10 33.6848 10H172.329C183.97 10 193.257 19.45 193.257 31V31V31Z" fill="#070707"/>
<g opacity="0.1" filter="url(#filter0_f_2_12)">
<path fill-rule="evenodd" clip-rule="evenodd" d="M187.24 39C187.24 49.45 178.555 58 167.941 58H40.0793C29.4644 58 20.7795 49.45 20.7795 39V39C20.7795 28.55 29.4644 20 40.0793 20H167.941C178.676 20 187.24 28.55 187.24 39V39V39Z" fill="#070707"/>
</g>
<path d="M53.8226 37C53.3626 37 52.9576 36.945 52.6076 36.835C52.2576 36.715 51.9326 36.54 51.6326 36.31C51.3426 36.08 51.0326 35.79 50.7026 35.44C50.5526 35.17 50.4376 34.93 50.3576 34.72C50.2876 34.5 50.2526 34.24 50.2526 33.94C50.2526 33.7 50.3076 33.49 50.4176 33.31C50.5276 33.13 50.7276 33.04 51.0176 33.04C51.2276 33.04 51.4226 33.165 51.6026 33.415C51.6526 33.595 51.7426 33.805 51.8726 34.045C52.0026 34.285 52.1976 34.515 52.4576 34.735C52.7276 34.955 53.0826 35.13 53.5226 35.26C53.6426 35.29 53.7776 35.305 53.9276 35.305C54.1876 35.305 54.4526 35.255 54.7226 35.155C55.0026 35.055 55.2376 34.91 55.4276 34.72C55.6176 34.53 55.7126 34.295 55.7126 34.015C55.7126 33.775 55.6326 33.57 55.4726 33.4C55.3226 33.23 55.1376 33.085 54.9176 32.965C54.7076 32.835 54.5126 32.725 54.3326 32.635C53.9826 32.465 53.6276 32.29 53.2676 32.11C52.9076 31.93 52.5776 31.72 52.2776 31.48C51.9776 31.23 51.7326 30.935 51.5426 30.595C51.3626 30.255 51.2726 29.845 51.2726 29.365C51.2726 28.815 51.4126 28.355 51.6926 27.985C51.9726 27.605 52.3326 27.32 52.7726 27.13C53.2226 26.93 53.6926 26.83 54.1826 26.83C54.3526 26.83 54.5676 26.845 54.8276 26.875C55.0976 26.905 55.3826 26.955 55.6826 27.025C55.9826 27.095 56.2676 27.195 56.5376 27.325C56.8076 27.445 57.0276 27.6 57.1976 27.79C57.3676 27.98 57.4526 28.21 57.4526 28.48C57.4526 28.7 57.3676 28.895 57.1976 29.065C57.0376 29.225 56.8476 29.305 56.6276 29.305C56.3876 29.305 56.1826 29.26 56.0126 29.17C55.8426 29.08 55.6776 28.98 55.5176 28.87C55.3676 28.76 55.1926 28.66 54.9926 28.57C54.7926 28.48 54.5476 28.435 54.2576 28.435H53.8226C53.5726 28.535 53.3626 28.665 53.1926 28.825C53.0226 28.975 52.9376 29.13 52.9376 29.29C52.9376 29.59 53.0426 29.845 53.2526 30.055C53.4726 30.265 53.7526 30.46 54.0926 30.64C54.4426 30.81 54.8076 30.985 55.1876 31.165C55.5776 31.345 55.9426 31.56 56.2826 31.81C56.6326 32.05 56.9126 32.35 57.1226 32.71C57.3426 33.06 57.4526 33.495 57.4526 34.015C57.4526 34.505 57.3476 34.935 57.1376 35.305C56.9276 35.675 56.6476 35.985 56.2976 36.235C55.9476 36.485 55.5576 36.675 55.1276 36.805C54.6976 36.935 54.2626 37 53.8226 37ZM63.0924 37.225C62.3724 37.225 61.7074 37.115 61.0974 36.895C60.4974 36.665 60.0124 36.305 59.6424 35.815C59.2724 35.315 59.0874 34.67 59.0874 33.88C59.0874 33.28 59.1824 32.695 59.3724 32.125C59.5724 31.555 59.8574 31.04 60.2274 30.58C60.5974 30.11 61.0424 29.74 61.5624 29.47C62.0824 29.19 62.6674 29.05 63.3174 29.05C63.7574 29.05 64.1674 29.14 64.5474 29.32C64.9374 29.49 65.2474 29.745 65.4774 30.085C65.7174 30.415 65.8374 30.82 65.8374 31.3C65.8374 31.76 65.7424 32.2 65.5524 32.62C65.3624 33.04 65.1024 33.415 64.7724 33.745C64.4424 34.075 64.0674 34.335 63.6474 34.525C63.2374 34.705 62.8074 34.795 62.3574 34.795C62.2874 34.795 62.1324 34.78 61.8924 34.75C61.6524 34.71 61.4624 34.67 61.3224 34.63C61.2224 34.61 61.1424 34.57 61.0824 34.51C61.0624 34.5 61.0274 34.485 60.9774 34.465C60.9274 34.435 60.8924 34.42 60.8724 34.42C60.9424 34.71 61.0874 34.955 61.3074 35.155C61.5374 35.345 61.7974 35.485 62.0874 35.575C62.3874 35.665 62.6724 35.71 62.9424 35.71C63.1324 35.71 63.3224 35.7 63.5124 35.68C63.7124 35.65 63.9224 35.635 64.1424 35.635C64.3624 35.635 64.5524 35.695 64.7124 35.815C64.8724 35.935 64.9524 36.13 64.9524 36.4C64.9524 36.62 64.8824 36.79 64.7424 36.91C64.6124 37.03 64.4424 37.11 64.2324 37.15C64.0324 37.19 63.8274 37.21 63.6174 37.21C63.4174 37.22 63.2424 37.225 63.0924 37.225ZM62.3574 33.055C62.6574 33.055 62.9524 33 63.2424 32.89C63.5424 32.77 63.7874 32.595 63.9774 32.365C64.1774 32.135 64.2774 31.85 64.2774 31.51C64.2774 31.22 64.1874 30.99 64.0074 30.82C63.8374 30.65 63.6074 30.565 63.3174 30.565C63.0574 30.565 62.7824 30.635 62.4924 30.775C62.2024 30.915 61.9274 31.095 61.6674 31.315C61.4174 31.535 61.2124 31.775 61.0524 32.035C60.8924 32.285 60.8124 32.53 60.8124 32.77V32.83C61.0724 32.87 61.3324 32.92 61.5924 32.98C61.8524 33.03 62.1074 33.055 62.3574 33.055ZM68.578 36.7C68.328 36.7 68.143 36.63 68.023 36.49C67.903 36.34 67.828 36.16 67.798 35.95C67.768 35.73 67.753 35.52 67.753 35.32C67.753 34.86 67.763 34.4 67.783 33.94C67.813 33.48 67.828 33.04 67.828 32.62C67.828 32.17 67.778 31.74 67.678 31.33C67.578 30.92 67.528 30.51 67.528 30.1V29.515C67.618 29.305 67.713 29.165 67.813 29.095C67.913 29.015 68.048 28.975 68.218 28.975C68.528 28.975 68.753 29.075 68.893 29.275C69.033 29.465 69.123 29.695 69.163 29.965C69.213 30.225 69.248 30.465 69.268 30.685C69.278 30.795 69.298 31.01 69.328 31.33C69.368 31.65 69.393 31.95 69.403 32.23H69.463L69.523 32.17C69.713 31.89 69.913 31.59 70.123 31.27C70.333 30.95 70.563 30.65 70.813 30.37C71.073 30.09 71.358 29.865 71.668 29.695C71.978 29.515 72.328 29.425 72.718 29.425C73.218 29.425 73.643 29.57 73.993 29.86C74.343 30.14 74.638 30.51 74.878 30.97C75.118 31.42 75.313 31.91 75.463 32.44C75.613 32.97 75.733 33.485 75.823 33.985C75.913 34.485 75.993 34.915 76.063 35.275V35.65C76.063 35.87 76.003 36.09 75.883 36.31C75.763 36.52 75.573 36.625 75.313 36.625C75.043 36.625 74.843 36.555 74.713 36.415C74.593 36.275 74.513 36.095 74.473 35.875C74.453 35.785 74.428 35.64 74.398 35.44C74.368 35.23 74.333 35.005 74.293 34.765C74.253 34.515 74.218 34.285 74.188 34.075C74.158 33.855 74.133 33.695 74.113 33.595C74.083 33.395 74.013 33.16 73.903 32.89C73.803 32.61 73.708 32.37 73.618 32.17C73.528 31.96 73.413 31.74 73.273 31.51C73.133 31.28 72.928 31.165 72.658 31.165C72.418 31.165 72.198 31.25 71.998 31.42C71.808 31.59 71.638 31.79 71.488 32.02C71.348 32.25 71.223 32.455 71.113 32.635C70.863 33.035 70.638 33.435 70.438 33.835C70.238 34.235 70.023 34.67 69.793 35.14C69.703 35.33 69.618 35.55 69.538 35.8C69.458 36.04 69.348 36.25 69.208 36.43C69.068 36.61 68.858 36.7 68.578 36.7ZM79.4505 37.225C78.9505 37.095 78.5305 36.875 78.1905 36.565C77.8605 36.245 77.6105 35.87 77.4405 35.44C77.2805 35.01 77.2005 34.56 77.2005 34.09C77.2005 33.44 77.3405 32.815 77.6205 32.215C77.9005 31.605 78.2755 31.065 78.7455 30.595C79.2255 30.115 79.7655 29.735 80.3655 29.455C80.9755 29.175 81.6055 29.035 82.2555 29.035C82.4855 29.035 82.7055 29.07 82.9155 29.14C83.1355 29.2 83.3555 29.235 83.5755 29.245L83.6355 29.05C83.6455 28.87 83.6605 28.645 83.6805 28.375C83.7005 28.105 83.7255 27.825 83.7555 27.535C83.7955 27.235 83.8355 26.95 83.8755 26.68C83.9255 26.41 83.9805 26.195 84.0405 26.035C84.1205 25.805 84.2355 25.61 84.3855 25.45C84.5355 25.28 84.7355 25.195 84.9855 25.195C85.2355 25.195 85.3955 25.275 85.4655 25.435C85.5455 25.595 85.5855 25.795 85.5855 26.035V26.41C85.4455 27.56 85.3355 28.695 85.2555 29.815C85.1855 30.925 85.1505 32.035 85.1505 33.145C85.1505 33.655 85.1755 34.155 85.2255 34.645C85.2755 35.125 85.3005 35.63 85.3005 36.16C85.3005 36.35 85.2705 36.54 85.2105 36.73C85.1605 36.91 85.0105 37 84.7605 37C84.5005 37 84.3005 36.93 84.1605 36.79C84.0205 36.64 83.9205 36.455 83.8605 36.235C83.8005 36.015 83.7505 35.805 83.7105 35.605C83.6905 35.455 83.6705 35.38 83.6505 35.38H83.5905C83.0705 35.95 82.5355 36.4 81.9855 36.73C81.4455 37.06 80.8205 37.225 80.1105 37.225H79.4505ZM80.0205 35.695C80.4105 35.695 80.7855 35.59 81.1455 35.38C81.5055 35.17 81.8255 34.895 82.1055 34.555C82.3955 34.215 82.6205 33.85 82.7805 33.46C82.9505 33.06 83.0355 32.68 83.0355 32.32C83.0355 32.23 83.0155 32.095 82.9755 31.915C82.9355 31.735 82.8855 31.545 82.8255 31.345C82.7655 31.145 82.7005 30.98 82.6305 30.85C82.5705 30.71 82.5155 30.64 82.4655 30.64C81.9855 30.64 81.5305 30.74 81.1005 30.94C80.6705 31.13 80.2855 31.39 79.9455 31.72C79.6155 32.05 79.3505 32.425 79.1505 32.845C78.9605 33.265 78.8655 33.705 78.8655 34.165V34.765C78.9455 35.055 79.0805 35.285 79.2705 35.455C79.4605 35.615 79.7105 35.695 80.0205 35.695ZM94.3611 36.85C94.1411 36.85 93.9461 36.78 93.7761 36.64C93.6161 36.49 93.5361 36.305 93.5361 36.085C93.5361 35.755 93.5461 35.435 93.5661 35.125C93.5961 34.815 93.6111 34.5 93.6111 34.18V33.19C93.6111 32.78 93.5961 32.375 93.5661 31.975C93.5461 31.565 93.4811 31.16 93.3711 30.76C93.3311 30.64 93.2961 30.515 93.2661 30.385C93.2461 30.245 93.2361 30.105 93.2361 29.965C93.2361 29.765 93.2861 29.565 93.3861 29.365C93.4861 29.155 93.6661 29.05 93.9261 29.05C94.1361 29.05 94.3061 29.13 94.4361 29.29C94.5661 29.44 94.6661 29.63 94.7361 29.86C94.8061 30.08 94.8561 30.305 94.8861 30.535C94.9261 30.755 94.9611 30.94 94.9911 31.09C95.0111 31.22 95.0411 31.36 95.0811 31.51C95.1211 31.66 95.1411 31.805 95.1411 31.945C95.1411 31.955 95.1511 31.985 95.1711 32.035C95.1911 32.085 95.2111 32.135 95.2311 32.185C95.3611 31.955 95.5061 31.705 95.6661 31.435C95.8361 31.155 96.0211 30.895 96.2211 30.655C96.4311 30.405 96.6611 30.2 96.9111 30.04C97.1711 29.88 97.4561 29.8 97.7661 29.8C98.0861 29.8 98.3261 29.88 98.4861 30.04C98.6561 30.19 98.7911 30.38 98.8911 30.61C98.9911 30.83 99.0911 31.05 99.1911 31.27C99.2311 31.37 99.2561 31.475 99.2661 31.585C99.2761 31.685 99.3011 31.79 99.3411 31.9L99.5061 31.66C99.7061 31.38 99.9311 31.075 100.181 30.745C100.441 30.405 100.731 30.115 101.051 29.875C101.371 29.625 101.731 29.5 102.131 29.5C102.451 29.5 102.721 29.595 102.941 29.785C103.171 29.965 103.356 30.2 103.496 30.49C103.646 30.78 103.756 31.08 103.826 31.39C103.896 31.7 103.931 31.985 103.931 32.245V35.425C103.931 35.575 103.906 35.74 103.856 35.92C103.816 36.09 103.741 36.24 103.631 36.37C103.521 36.49 103.366 36.55 103.166 36.55C102.936 36.55 102.751 36.47 102.611 36.31C102.471 36.15 102.401 35.98 102.401 35.8V33.07C102.401 33.04 102.396 32.975 102.386 32.875C102.376 32.775 102.361 32.67 102.341 32.56C102.331 32.45 102.326 32.37 102.326 32.32C102.326 32.24 102.316 32.115 102.296 31.945C102.276 31.775 102.236 31.615 102.176 31.465C102.116 31.315 102.026 31.24 101.906 31.24H101.771C101.471 31.5 101.246 31.75 101.096 31.99C100.946 32.22 100.831 32.45 100.751 32.68C100.671 32.91 100.596 33.155 100.526 33.415C100.456 33.665 100.356 33.94 100.226 34.24C100.156 34.5 100.041 34.745 99.8811 34.975C99.7311 35.195 99.5211 35.305 99.2511 35.305C98.9911 35.305 98.7911 35.235 98.6511 35.095C98.5211 34.945 98.4211 34.765 98.3511 34.555C98.2911 34.345 98.2411 34.145 98.2011 33.955C98.1811 33.865 98.1461 33.715 98.0961 33.505C98.0461 33.295 97.9911 33.065 97.9311 32.815C97.8811 32.565 97.8311 32.33 97.7811 32.11C97.7311 31.88 97.6961 31.71 97.6761 31.6C97.6161 31.51 97.5561 31.465 97.4961 31.465C97.4061 31.465 97.3111 31.53 97.2111 31.66C97.1111 31.79 97.0361 31.915 96.9861 32.035C96.9261 32.125 96.8411 32.285 96.7311 32.515C96.6211 32.735 96.5161 32.95 96.4161 33.16C96.3261 33.37 96.2661 33.51 96.2361 33.58C96.2161 33.64 96.1561 33.785 96.0561 34.015C95.9661 34.245 95.8611 34.51 95.7411 34.81C95.6211 35.1 95.5111 35.365 95.4111 35.605C95.3111 35.845 95.2461 36.005 95.2161 36.085C95.1161 36.275 95.0111 36.45 94.9011 36.61C94.8011 36.77 94.6211 36.85 94.3611 36.85ZM109.587 37.225C108.867 37.225 108.202 37.115 107.592 36.895C106.992 36.665 106.507 36.305 106.137 35.815C105.767 35.315 105.582 34.67 105.582 33.88C105.582 33.28 105.677 32.695 105.867 32.125C106.067 31.555 106.352 31.04 106.722 30.58C107.092 30.11 107.537 29.74 108.057 29.47C108.577 29.19 109.162 29.05 109.812 29.05C110.252 29.05 110.662 29.14 111.042 29.32C111.432 29.49 111.742 29.745 111.972 30.085C112.212 30.415 112.332 30.82 112.332 31.3C112.332 31.76 112.237 32.2 112.047 32.62C111.857 33.04 111.597 33.415 111.267 33.745C110.937 34.075 110.562 34.335 110.142 34.525C109.732 34.705 109.302 34.795 108.852 34.795C108.782 34.795 108.627 34.78 108.387 34.75C108.147 34.71 107.957 34.67 107.817 34.63C107.717 34.61 107.637 34.57 107.577 34.51C107.557 34.5 107.522 34.485 107.472 34.465C107.422 34.435 107.387 34.42 107.367 34.42C107.437 34.71 107.582 34.955 107.802 35.155C108.032 35.345 108.292 35.485 108.582 35.575C108.882 35.665 109.167 35.71 109.437 35.71C109.627 35.71 109.817 35.7 110.007 35.68C110.207 35.65 110.417 35.635 110.637 35.635C110.857 35.635 111.047 35.695 111.207 35.815C111.367 35.935 111.447 36.13 111.447 36.4C111.447 36.62 111.377 36.79 111.237 36.91C111.107 37.03 110.937 37.11 110.727 37.15C110.527 37.19 110.322 37.21 110.112 37.21C109.912 37.22 109.737 37.225 109.587 37.225ZM108.852 33.055C109.152 33.055 109.447 33 109.737 32.89C110.037 32.77 110.282 32.595 110.472 32.365C110.672 32.135 110.772 31.85 110.772 31.51C110.772 31.22 110.682 30.99 110.502 30.82C110.332 30.65 110.102 30.565 109.812 30.565C109.552 30.565 109.277 30.635 108.987 30.775C108.697 30.915 108.422 31.095 108.162 31.315C107.912 31.535 107.707 31.775 107.547 32.035C107.387 32.285 107.307 32.53 107.307 32.77V32.83C107.567 32.87 107.827 32.92 108.087 32.98C108.347 33.03 108.602 33.055 108.852 33.055ZM116.872 37.225C116.592 37.225 116.272 37.2 115.912 37.15C115.552 37.11 115.202 37.03 114.862 36.91C114.522 36.79 114.237 36.61 114.007 36.37C113.787 36.13 113.677 35.815 113.677 35.425C113.677 35.165 113.742 34.94 113.872 34.75C114.002 34.55 114.212 34.45 114.502 34.45C114.682 34.45 114.822 34.495 114.922 34.585C115.022 34.675 115.107 34.785 115.177 34.915C115.257 35.045 115.347 35.18 115.447 35.32C115.557 35.45 115.702 35.56 115.882 35.65C116.072 35.74 116.327 35.785 116.647 35.785C116.877 35.785 117.127 35.76 117.397 35.71C117.677 35.65 117.917 35.545 118.117 35.395C118.317 35.245 118.417 35.04 118.417 34.78C118.417 34.55 118.322 34.37 118.132 34.24C117.942 34.1 117.697 33.98 117.397 33.88C117.097 33.78 116.782 33.68 116.452 33.58C116.122 33.47 115.807 33.335 115.507 33.175C115.207 33.015 114.962 32.805 114.772 32.545C114.582 32.275 114.487 31.93 114.487 31.51C114.487 31.12 114.582 30.785 114.772 30.505C114.962 30.225 115.207 29.995 115.507 29.815C115.817 29.625 116.147 29.49 116.497 29.41C116.857 29.32 117.202 29.275 117.532 29.275C117.722 29.275 117.942 29.3 118.192 29.35C118.442 29.39 118.687 29.46 118.927 29.56C119.167 29.66 119.367 29.8 119.527 29.98C119.687 30.15 119.767 30.365 119.767 30.625C119.767 31.085 119.537 31.315 119.077 31.315H118.882C118.582 31.145 118.327 31.015 118.117 30.925C117.907 30.835 117.667 30.79 117.397 30.79C117.277 30.79 117.107 30.805 116.887 30.835C116.677 30.855 116.487 30.91 116.317 31C116.147 31.09 116.062 31.235 116.062 31.435C116.062 31.605 116.157 31.745 116.347 31.855C116.537 31.965 116.782 32.07 117.082 32.17C117.382 32.27 117.697 32.38 118.027 32.5C118.357 32.62 118.672 32.775 118.972 32.965C119.272 33.145 119.517 33.375 119.707 33.655C119.897 33.935 119.992 34.285 119.992 34.705C119.992 35.315 119.837 35.805 119.527 36.175C119.227 36.545 118.837 36.815 118.357 36.985C117.887 37.145 117.392 37.225 116.872 37.225ZM124.416 37.225C124.136 37.225 123.816 37.2 123.456 37.15C123.096 37.11 122.746 37.03 122.406 36.91C122.066 36.79 121.781 36.61 121.551 36.37C121.331 36.13 121.221 35.815 121.221 35.425C121.221 35.165 121.286 34.94 121.416 34.75C121.546 34.55 121.756 34.45 122.046 34.45C122.226 34.45 122.366 34.495 122.466 34.585C122.566 34.675 122.651 34.785 122.721 34.915C122.801 35.045 122.891 35.18 122.991 35.32C123.101 35.45 123.246 35.56 123.426 35.65C123.616 35.74 123.871 35.785 124.191 35.785C124.421 35.785 124.671 35.76 124.941 35.71C125.221 35.65 125.461 35.545 125.661 35.395C125.861 35.245 125.961 35.04 125.961 34.78C125.961 34.55 125.866 34.37 125.676 34.24C125.486 34.1 125.241 33.98 124.941 33.88C124.641 33.78 124.326 33.68 123.996 33.58C123.666 33.47 123.351 33.335 123.051 33.175C122.751 33.015 122.506 32.805 122.316 32.545C122.126 32.275 122.031 31.93 122.031 31.51C122.031 31.12 122.126 30.785 122.316 30.505C122.506 30.225 122.751 29.995 123.051 29.815C123.361 29.625 123.691 29.49 124.041 29.41C124.401 29.32 124.746 29.275 125.076 29.275C125.266 29.275 125.486 29.3 125.736 29.35C125.986 29.39 126.231 29.46 126.471 29.56C126.711 29.66 126.911 29.8 127.071 29.98C127.231 30.15 127.311 30.365 127.311 30.625C127.311 31.085 127.081 31.315 126.621 31.315H126.426C126.126 31.145 125.871 31.015 125.661 30.925C125.451 30.835 125.211 30.79 124.941 30.79C124.821 30.79 124.651 30.805 124.431 30.835C124.221 30.855 124.031 30.91 123.861 31C123.691 31.09 123.606 31.235 123.606 31.435C123.606 31.605 123.701 31.745 123.891 31.855C124.081 31.965 124.326 32.07 124.626 32.17C124.926 32.27 125.241 32.38 125.571 32.5C125.901 32.62 126.216 32.775 126.516 32.965C126.816 33.145 127.061 33.375 127.251 33.655C127.441 33.935 127.536 34.285 127.536 34.705C127.536 35.315 127.381 35.805 127.071 36.175C126.771 36.545 126.381 36.815 125.901 36.985C125.431 37.145 124.936 37.225 124.416 37.225ZM131.795 37.15C131.335 37.15 130.905 37.045 130.505 36.835C130.105 36.625 129.77 36.345 129.5 35.995C129.23 35.635 129.055 35.23 128.975 34.78V34.015C128.975 33.455 129.075 32.89 129.275 32.32C129.475 31.75 129.76 31.225 130.13 30.745C130.5 30.255 130.94 29.865 131.45 29.575C131.96 29.275 132.52 29.125 133.13 29.125C133.38 29.125 133.595 29.17 133.775 29.26C133.965 29.35 134.135 29.445 134.285 29.545C134.445 29.635 134.6 29.69 134.75 29.71C134.83 29.3 134.94 29.03 135.08 28.9C135.22 28.76 135.41 28.69 135.65 28.69C135.94 28.69 136.135 28.785 136.235 28.975C136.345 29.155 136.4 29.385 136.4 29.665C136.4 30.215 136.385 30.755 136.355 31.285C136.335 31.815 136.325 32.36 136.325 32.92C136.325 33.36 136.35 33.815 136.4 34.285C136.45 34.755 136.475 35.21 136.475 35.65V35.965C136.475 36.185 136.43 36.39 136.34 36.58C136.26 36.76 136.075 36.85 135.785 36.85C135.515 36.85 135.32 36.77 135.2 36.61C135.09 36.44 135.015 36.24 134.975 36.01C134.945 35.77 134.915 35.555 134.885 35.365L134.825 35.305C134.485 35.645 134.18 35.955 133.91 36.235C133.65 36.515 133.36 36.74 133.04 36.91C132.72 37.07 132.305 37.15 131.795 37.15ZM131.645 35.635C131.995 35.635 132.325 35.53 132.635 35.32C132.955 35.1 133.24 34.82 133.49 34.48C133.74 34.13 133.935 33.765 134.075 33.385C134.215 33.005 134.285 32.65 134.285 32.32C134.285 32.07 134.25 31.82 134.18 31.57C134.11 31.31 133.99 31.09 133.82 30.91C133.66 30.73 133.43 30.64 133.13 30.64C132.8 30.64 132.475 30.755 132.155 30.985C131.845 31.215 131.565 31.51 131.315 31.87C131.065 32.22 130.865 32.59 130.715 32.98C130.565 33.36 130.49 33.705 130.49 34.015C130.49 34.265 130.525 34.515 130.595 34.765C130.675 35.015 130.8 35.225 130.97 35.395C131.14 35.555 131.365 35.635 131.645 35.635ZM141.086 41.23C140.796 41.13 140.516 40.995 140.246 40.825C139.986 40.665 139.771 40.475 139.601 40.255C139.441 40.045 139.361 39.815 139.361 39.565C139.361 39.335 139.441 39.165 139.601 39.055C139.771 38.945 139.951 38.89 140.141 38.89C140.361 38.89 140.541 38.955 140.681 39.085C140.831 39.225 140.986 39.36 141.146 39.49C141.316 39.63 141.521 39.7 141.761 39.7C142.051 39.7 142.306 39.605 142.526 39.415C142.746 39.225 142.931 38.98 143.081 38.68C143.231 38.38 143.346 38.06 143.426 37.72C143.516 37.38 143.566 37.06 143.576 36.76C143.586 36.69 143.601 36.54 143.621 36.31C143.641 36.07 143.661 35.82 143.681 35.56C143.711 35.3 143.726 35.11 143.726 34.99V34.84C143.726 34.76 143.706 34.72 143.666 34.72H143.606C143.306 35.07 142.996 35.43 142.676 35.8C142.366 36.17 142.016 36.48 141.626 36.73C141.236 36.97 140.786 37.09 140.276 37.09C139.886 37.09 139.521 36.99 139.181 36.79C138.841 36.59 138.566 36.32 138.356 35.98C138.146 35.64 138.041 35.26 138.041 34.84C138.041 34.15 138.176 33.465 138.446 32.785C138.716 32.095 139.091 31.47 139.571 30.91C140.051 30.35 140.606 29.9 141.236 29.56C141.876 29.22 142.566 29.05 143.306 29.05C143.506 29.05 143.716 29.085 143.936 29.155C144.156 29.225 144.341 29.34 144.491 29.5C144.651 29.65 144.731 29.855 144.731 30.115C144.731 30.345 144.646 30.53 144.476 30.67C144.316 30.81 144.121 30.88 143.891 30.88C143.731 30.88 143.571 30.855 143.411 30.805C143.261 30.755 143.106 30.73 142.946 30.73H142.646C142.096 30.89 141.596 31.175 141.146 31.585C140.706 31.985 140.356 32.455 140.096 32.995C139.836 33.525 139.706 34.065 139.706 34.615V35.125C139.786 35.415 139.951 35.56 140.201 35.56C140.431 35.56 140.661 35.475 140.891 35.305C141.121 35.135 141.346 34.925 141.566 34.675C141.786 34.415 141.991 34.16 142.181 33.91C142.371 33.65 142.546 33.435 142.706 33.265C142.856 33.005 143.026 32.76 143.216 32.53C143.406 32.29 143.581 32.04 143.741 31.78C143.851 31.64 143.956 31.545 144.056 31.495C144.156 31.445 144.276 31.42 144.416 31.42C144.666 31.42 144.846 31.49 144.956 31.63C145.076 31.76 145.161 31.925 145.211 32.125C145.261 32.325 145.296 32.515 145.316 32.695V33.82C145.316 34.23 145.301 34.695 145.271 35.215C145.251 35.735 145.201 36.275 145.121 36.835C145.051 37.385 144.936 37.92 144.776 38.44C144.616 38.96 144.401 39.43 144.131 39.85C143.871 40.27 143.541 40.605 143.141 40.855C142.741 41.105 142.256 41.23 141.686 41.23H141.086ZM150.88 37.225C150.16 37.225 149.495 37.115 148.885 36.895C148.285 36.665 147.8 36.305 147.43 35.815C147.06 35.315 146.875 34.67 146.875 33.88C146.875 33.28 146.97 32.695 147.16 32.125C147.36 31.555 147.645 31.04 148.015 30.58C148.385 30.11 148.83 29.74 149.35 29.47C149.87 29.19 150.455 29.05 151.105 29.05C151.545 29.05 151.955 29.14 152.335 29.32C152.725 29.49 153.035 29.745 153.265 30.085C153.505 30.415 153.625 30.82 153.625 31.3C153.625 31.76 153.53 32.2 153.34 32.62C153.15 33.04 152.89 33.415 152.56 33.745C152.23 34.075 151.855 34.335 151.435 34.525C151.025 34.705 150.595 34.795 150.145 34.795C150.075 34.795 149.92 34.78 149.68 34.75C149.44 34.71 149.25 34.67 149.11 34.63C149.01 34.61 148.93 34.57 148.87 34.51C148.85 34.5 148.815 34.485 148.765 34.465C148.715 34.435 148.68 34.42 148.66 34.42C148.73 34.71 148.875 34.955 149.095 35.155C149.325 35.345 149.585 35.485 149.875 35.575C150.175 35.665 150.46 35.71 150.73 35.71C150.92 35.71 151.11 35.7 151.3 35.68C151.5 35.65 151.71 35.635 151.93 35.635C152.15 35.635 152.34 35.695 152.5 35.815C152.66 35.935 152.74 36.13 152.74 36.4C152.74 36.62 152.67 36.79 152.53 36.91C152.4 37.03 152.23 37.11 152.02 37.15C151.82 37.19 151.615 37.21 151.405 37.21C151.205 37.22 151.03 37.225 150.88 37.225ZM150.145 33.055C150.445 33.055 150.74 33 151.03 32.89C151.33 32.77 151.575 32.595 151.765 32.365C151.965 32.135 152.065 31.85 152.065 31.51C152.065 31.22 151.975 30.99 151.795 30.82C151.625 30.65 151.395 30.565 151.105 30.565C150.845 30.565 150.57 30.635 150.28 30.775C149.99 30.915 149.715 31.095 149.455 31.315C149.205 31.535 149 31.775 148.84 32.035C148.68 32.285 148.6 32.53 148.6 32.77V32.83C148.86 32.87 149.12 32.92 149.38 32.98C149.64 33.03 149.895 33.055 150.145 33.055Z" fill="white"/>
<defs>
<filter id="filter0_f_2_12" x="0.779526" y="0" width="206.461" height="78" filterUnits="userSpaceOnUse" color-interpolation-filters="sRGB">
<feFlood flood-opacity="0" result="BackgroundImageFix"/>
<feBlend mode="normal" in="SourceGraphic" in2="BackgroundImageFix" result="shape"/>
<feGaussianBlur stdDeviation="10" result="effect1_foregroundBlur_2_12"/>
</filter>
</defs>
</svg>
