<svg width="22" height="20" viewBox="0 0 22 20" fill="none" xmlns="http://www.w3.org/2000/svg">
<path d="M10.3136 0.859824C10.6135 -0.0604526 11.9154 -0.0604518 12.2152 0.859825L13.9663 6.23422C14.1004 6.64585 14.4842 6.92443 14.9171 6.92443H20.5779C21.5473 6.92443 21.9496 8.16546 21.1646 8.73422L16.5897 12.0489C16.2383 12.3035 16.0912 12.7558 16.2256 13.1684L17.9742 18.5351C18.2742 19.4559 17.2209 20.2229 16.4367 19.6547L11.8511 16.3323C11.5011 16.0787 11.0277 16.0787 10.6777 16.3323L6.09215 19.6547C5.3079 20.2229 4.2546 19.4559 4.55463 18.5351L6.3032 13.1684C6.43765 12.7558 6.29057 12.3035 5.93911 12.0489L1.36424 8.73422C0.579235 8.16546 0.981566 6.92443 1.95096 6.92443H7.61172C8.04464 6.92443 8.4284 6.64585 8.56252 6.23422L10.3136 0.859824Z" fill="#E5E5E5"/>
</svg>
